<?xml version="1.0" standalone="no"?>
<!DOCTYPE svg PUBLIC "-//W3C//DTD SVG 20010904//EN"
 "http://www.w3.org/TR/2001/REC-SVG-20010904/DTD/svg10.dtd">
<svg version="1.0" xmlns="http://www.w3.org/2000/svg"
 width="768.000000pt" height="768.000000pt" viewBox="0 0 768.000000 768.000000"
 preserveAspectRatio="xMidYMid meet">
<metadata>
Created by potrace 1.11, written by Peter Selinger 2001-2013
</metadata>
<g transform="translate(0.000000,768.000000) scale(0.100000,-0.100000)"
fill="#000000" stroke="none">
<path d="M5201 7590 c10 -33 21 -81 25 -107 8 -65 12 -81 19 -92 3 -5 1 -13
-5 -16 -7 -4 -7 -12 -2 -18 10 -14 9 -214 -2 -297 -31 -249 -133 -533 -257
-718 -16 -24 -29 -46 -29 -49 0 -3 -39 -58 -87 -122 -93 -125 -329 -367 -453
-466 -41 -33 -80 -64 -86 -70 -6 -5 -22 -17 -34 -25 -13 -8 -31 -22 -40 -31
-10 -9 -21 -18 -26 -20 -15 -7 -188 -123 -202 -136 -7 -7 -19 -13 -26 -13 -7
0 -21 -9 -31 -20 -10 -11 -21 -20 -25 -20 -4 0 -57 -29 -117 -64 -101 -58
-455 -238 -478 -242 -5 -1 -39 -15 -75 -32 -36 -17 -90 -40 -120 -52 -30 -12
-68 -27 -85 -35 -16 -7 -79 -32 -138 -55 -60 -23 -143 -58 -185 -78 -42 -19
-79 -36 -82 -37 -6 -1 -157 -77 -185 -93 -118 -66 -303 -179 -315 -192 -3 -3
-23 -17 -46 -31 -46 -30 -232 -177 -282 -223 -19 -17 -77 -74 -130 -126 -85
-84 -114 -116 -199 -217 -41 -49 -143 -192 -143 -200 0 -5 -8 -18 -18 -29 -24
-25 -105 -166 -105 -181 0 -7 -3 -13 -7 -13 -7 0 -60 -114 -60 -129 0 -5 -4
-11 -8 -13 -13 -5 -93 -230 -118 -327 -34 -138 -39 -159 -49 -226 -2 -11 -6
-33 -9 -50 -19 -106 -28 -497 -13 -640 9 -88 24 -200 27 -200 2 0 6 -23 15
-80 7 -48 53 -244 62 -265 3 -8 8 -24 10 -35 12 -61 132 -394 192 -530 36 -81
158 -326 175 -350 12 -16 19 -30 16 -30 -3 0 26 -53 64 -118 37 -65 70 -117
72 -115 4 5 14 63 20 118 2 25 6 56 8 70 2 14 7 48 11 75 3 28 9 58 11 68 3
10 7 32 10 50 2 18 6 49 9 71 3 21 7 41 9 45 2 3 7 27 11 51 3 25 8 52 11 61
3 10 7 30 9 45 3 16 18 85 35 154 16 69 32 135 34 147 3 13 7 26 10 31 3 5 7
19 10 33 3 13 15 58 26 99 12 41 23 80 24 85 10 49 111 338 146 420 10 22 21
51 25 65 16 52 128 297 198 432 100 194 99 193 109 196 4 2 8 8 8 14 0 9 96
167 122 203 5 6 43 60 86 120 43 61 86 119 94 130 106 130 176 208 294 329 25
26 180 167 214 195 193 159 389 286 604 392 66 33 129 64 138 70 10 5 25 9 33
9 8 0 15 5 15 12 0 6 3 9 6 5 3 -3 30 5 60 18 30 13 54 21 54 18 0 -3 6 -1 13
5 19 15 337 116 337 107 0 -2 -21 -15 -47 -27 -177 -86 -437 -267 -617 -428
-87 -77 -256 -250 -337 -345 -102 -119 -249 -311 -249 -325 0 -5 -4 -10 -10
-10 -5 0 -10 -6 -10 -14 0 -8 -3 -16 -8 -18 -4 -1 -27 -34 -52 -73 -24 -38
-49 -73 -55 -77 -5 -4 -6 -8 -1 -8 5 0 2 -8 -6 -17 -22 -27 -79 -125 -143
-248 -31 -60 -62 -116 -68 -124 -7 -8 -11 -16 -9 -18 2 -2 -15 -42 -37 -89
-23 -47 -41 -88 -41 -91 0 -2 -9 -25 -21 -50 -33 -73 -88 -217 -141 -373 -48
-140 -53 -156 -62 -200 -3 -11 -8 -25 -11 -30 -3 -5 -8 -18 -10 -28 -2 -10
-10 -42 -19 -70 -8 -29 -12 -52 -9 -52 3 0 1 -6 -5 -12 -5 -7 -22 -67 -37
-133 -15 -66 -29 -129 -31 -140 -3 -11 -8 -33 -10 -50 -3 -16 -10 -50 -15 -75
-6 -25 -11 -54 -13 -65 -2 -11 -7 -38 -11 -60 -4 -22 -8 -50 -10 -62 -2 -12
-6 -34 -9 -50 -7 -34 -17 -107 -22 -148 -1 -16 -5 -41 -8 -55 -2 -14 -7 -52
-11 -85 -3 -33 -8 -71 -10 -85 -3 -14 -7 -56 -11 -95 -3 -38 -7 -86 -9 -105
-1 -19 -6 -82 -10 -140 -4 -58 -9 -117 -10 -132 -4 -31 1 -34 95 -43 36 -4 79
-9 95 -11 17 -2 57 -6 90 -9 33 -3 79 -8 103 -10 136 -14 301 -20 577 -20 273
0 386 5 539 20 164 16 207 21 256 30 14 3 43 7 65 11 61 8 84 12 103 18 9 3
35 7 57 11 22 3 47 7 55 10 8 2 27 7 43 10 15 3 39 7 55 10 15 3 36 9 47 12
11 4 25 8 31 9 33 6 212 60 299 90 55 19 106 36 113 36 6 1 12 5 12 10 0 4 3
7 8 6 4 0 16 2 27 7 109 44 157 66 265 121 142 73 161 84 245 138 201 129 409
307 557 477 40 46 69 81 131 159 27 33 135 198 158 240 13 25 27 47 30 50 3 3
11 20 18 37 8 18 17 33 22 33 5 0 9 5 9 11 0 6 20 53 45 105 25 51 45 96 45
99 0 3 9 25 19 48 50 111 155 451 185 600 4 15 9 39 12 55 4 15 8 36 9 47 2
11 4 20 5 20 3 0 14 63 34 195 44 289 50 375 49 725 0 277 -3 367 -18 500 -3
28 -8 73 -10 100 -8 74 -21 170 -30 210 -2 11 -7 43 -10 70 -3 28 -10 68 -15
90 -5 22 -14 69 -21 105 -6 36 -23 112 -36 170 -14 58 -26 114 -29 125 -8 40
-100 366 -111 395 -3 8 -7 20 -8 25 -5 19 -84 252 -96 281 -17 42 -26 65 -38
99 -6 17 -16 44 -22 60 -7 17 -13 35 -14 41 -2 6 -10 27 -18 45 -9 19 -30 68
-47 109 -18 41 -40 93 -51 116 -10 22 -19 43 -19 46 0 23 -282 589 -312 626
-6 6 -7 12 -3 12 5 0 1 8 -7 18 -8 9 -29 42 -45 72 -65 119 -226 386 -282 469
-9 13 -21 31 -26 40 -29 45 -111 167 -120 177 -5 6 -17 22 -25 34 -8 13 -25
35 -37 50 -13 15 -23 33 -23 39 0 6 -4 11 -8 11 -4 0 -16 14 -25 30 -29 48
-36 35 -16 -30z"/>
</g>
</svg>
